<?xml version="1.0" encoding="utf-8"?>
<!-- Generator: Adobe Illustrator 21.0.0, SVG Export Plug-In . SVG Version: 6.00 Build 0)  -->
<svg version="1.1" id="Слой_1" xmlns="http://www.w3.org/2000/svg" xmlns:xlink="http://www.w3.org/1999/xlink" x="0px" y="0px"
	 viewBox="0 0 16 16" style="enable-background:new 0 0 16 16;" xml:space="preserve">
<path d="M0,7.8c0-0.6,0.4-1,1-1h11.6L8.3,2.4C7.9,2,7.9,1.4,8.3,1c0.4-0.4,1-0.4,1.4,0l6,6.1c0.4,0.4,0.4,1,0,1.4c0,0,0,0,0,0
	l-6,6.1c-0.4,0.4-1,0.4-1.4,0c-0.4-0.4-0.4-1,0-1.4l4.3-4.4H1C0.4,8.9,0,8.4,0,7.8z"/>
</svg>
