<svg width="15" height="15" viewBox="0 0 15 15" fill="none" xmlns="http://www.w3.org/2000/svg">
<g clip-path="url(#clip0)">
<path d="M14.6064 11.5717L11.5703 9.54695C11.1851 9.29208 10.6686 9.37594 10.3838 9.73967L9.49938 10.8767C9.38573 11.0266 9.17913 11.0701 9.01471 10.9787L8.84648 10.886C8.28881 10.582 7.59493 10.2036 6.19688 8.80506C4.79884 7.40652 4.41965 6.71211 4.11568 6.15547L4.02344 5.98724C3.93084 5.82285 3.97349 5.61537 4.12341 5.50081L5.25973 4.6167C5.62331 4.33183 5.70729 3.81552 5.45271 3.43012L3.42801 0.394064C3.1671 0.00160313 2.64364 -0.116211 2.23973 0.126594L0.970159 0.889225C0.571253 1.12374 0.278592 1.50355 0.153542 1.94906C-0.303626 3.61481 0.0402969 6.48963 4.27518 10.725C7.64393 14.0935 10.1518 14.9994 11.8756 14.9994C12.2723 15.0011 12.6674 14.9495 13.0504 14.8459C13.496 14.721 13.8759 14.4283 14.1102 14.0293L14.8736 12.7605C15.1168 12.3565 14.999 11.8327 14.6064 11.5717ZM14.4429 12.504L13.6813 13.7736C13.513 14.0616 13.2398 14.2733 12.9189 14.3645C11.3811 14.7867 8.69451 14.437 4.62885 10.3713C0.563198 6.30568 0.213533 3.61932 0.635726 2.08131C0.727002 1.76003 0.939021 1.48647 1.22738 1.31792L2.49694 0.556286C2.6722 0.450833 2.89939 0.501949 3.01261 0.672256L4.11246 2.3235L5.03558 3.70805C5.14613 3.87522 5.10981 4.09928 4.9521 4.22298L3.81552 5.10709C3.46963 5.37157 3.37086 5.85012 3.58381 6.22993L3.67406 6.39391C3.99353 6.97982 4.39071 7.7087 5.84074 9.15851C7.29078 10.6083 8.01944 11.0055 8.60508 11.3249L8.76929 11.4154C9.14907 11.6283 9.62765 11.5296 9.89214 11.1837L10.7762 10.0471C10.9 9.8895 11.1239 9.85321 11.2912 9.96364L14.327 11.9883C14.4974 12.1015 14.5485 12.3288 14.4429 12.504Z" fill="#999999"/>
<path d="M8.49995 2.50137C10.8457 2.50398 12.7467 4.40498 12.7493 6.75075C12.7493 6.88881 12.8612 7.0007 12.9993 7.0007C13.1373 7.0007 13.2492 6.88881 13.2492 6.75075C13.2463 4.12898 11.1217 2.00434 8.49995 2.00146C8.3619 2.00146 8.25 2.11336 8.25 2.25142C8.25 2.38947 8.3619 2.50137 8.49995 2.50137Z" fill="#999999"/>
<path d="M8.49995 4.00088C10.0178 4.00267 11.2478 5.23266 11.2496 6.75048C11.2496 6.88854 11.3615 7.00044 11.4995 7.00044C11.6376 7.00044 11.7495 6.88854 11.7495 6.75048C11.7474 4.95667 10.2937 3.50303 8.49995 3.50098C8.3619 3.50098 8.25 3.61287 8.25 3.75093C8.25 3.88899 8.3619 4.00088 8.49995 4.00088Z" fill="#999999"/>
<path d="M8.49995 5.50088C9.18985 5.5017 9.74893 6.06078 9.74978 6.75071C9.74978 6.88876 9.8617 7.00066 9.99973 7.00066C10.1378 7.00066 10.2497 6.88876 10.2497 6.75071C10.2486 5.78482 9.46585 5.00206 8.49995 5.00098C8.3619 5.00098 8.25 5.11287 8.25 5.25093C8.25 5.38899 8.3619 5.50088 8.49995 5.50088Z" fill="#999999"/>
</g>
<defs>
<clipPath id="clip0">
<rect width="15" height="15" fill="white"/>
</clipPath>
</defs>
</svg>
