<svg width="28" height="22" viewBox="0 0 28 22" fill="none" xmlns="http://www.w3.org/2000/svg">
<path d="M13.3509 1L11.0809 8H8.9609L7.6209 3.74L6.2209 8H4.1009L1.8309 1H3.8709L5.2809 5.47L6.7609 1H8.5809L9.9909 5.51L11.4609 1H13.3509ZM19.11 5.3C19.11 5.31333 19.1 5.47 19.08 5.77H15.14C15.22 6.05 15.3733 6.26667 15.6 6.42C15.8333 6.56667 16.1233 6.64 16.47 6.64C16.73 6.64 16.9533 6.60333 17.14 6.53C17.3333 6.45667 17.5266 6.33667 17.72 6.17L18.72 7.21C18.1933 7.79667 17.4233 8.09 16.41 8.09C15.7766 8.09 15.22 7.97 14.74 7.73C14.26 7.49 13.8866 7.15667 13.62 6.73C13.36 6.30333 13.23 5.82 13.23 5.28C13.23 4.74667 13.3566 4.27 13.61 3.85C13.87 3.42333 14.2266 3.09 14.68 2.85C15.1333 2.61 15.6433 2.49 16.21 2.49C16.75 2.49 17.24 2.60333 17.68 2.83C18.12 3.05 18.4666 3.37333 18.72 3.8C18.98 4.22 19.11 4.72 19.11 5.3ZM16.22 3.84C15.9266 3.84 15.68 3.92333 15.48 4.09C15.2866 4.25667 15.1633 4.48333 15.11 4.77H17.33C17.2766 4.48333 17.15 4.25667 16.95 4.09C16.7566 3.92333 16.5133 3.84 16.22 3.84ZM23.396 2.49C23.8893 2.49 24.336 2.60333 24.736 2.83C25.1426 3.05667 25.4626 3.38333 25.696 3.81C25.936 4.23 26.056 4.72 26.056 5.28C26.056 5.84 25.936 6.33333 25.696 6.76C25.4626 7.18667 25.1426 7.51667 24.736 7.75C24.336 7.97667 23.8893 8.09 23.396 8.09C22.6826 8.09 22.1493 7.88 21.796 7.46V8H19.986V0.58H21.886V3.05C22.2526 2.67667 22.756 2.49 23.396 2.49ZM22.996 6.58C23.3293 6.58 23.6026 6.46667 23.816 6.24C24.0293 6.00667 24.136 5.68667 24.136 5.28C24.136 4.88 24.0293 4.56667 23.816 4.34C23.6026 4.11333 23.3293 4 22.996 4C22.6626 4 22.3893 4.11333 22.176 4.34C21.9626 4.56667 21.856 4.88 21.856 5.28C21.856 5.68667 21.9626 6.00667 22.176 6.24C22.3893 6.46667 22.6626 6.58 22.996 6.58ZM4.5523 21.14C3.81897 21.14 3.15897 20.9867 2.5723 20.68C1.9923 20.3667 1.53564 19.9333 1.2023 19.38C0.868971 18.8267 0.702305 18.2 0.702305 17.5C0.702305 16.8 0.868971 16.1733 1.2023 15.62C1.53564 15.0667 1.9923 14.6367 2.5723 14.33C3.15897 14.0167 3.81897 13.86 4.5523 13.86C5.19231 13.86 5.76897 13.9733 6.2823 14.2C6.79564 14.4267 7.2223 14.7533 7.5623 15.18L6.30231 16.32C5.84897 15.7733 5.29897 15.5 4.6523 15.5C4.2723 15.5 3.9323 15.5833 3.6323 15.75C3.33897 15.9167 3.10897 16.1533 2.9423 16.46C2.7823 16.76 2.7023 17.1067 2.7023 17.5C2.7023 17.8933 2.7823 18.2433 2.9423 18.55C3.10897 18.85 3.33897 19.0833 3.6323 19.25C3.9323 19.4167 4.2723 19.5 4.6523 19.5C5.29897 19.5 5.84897 19.2267 6.30231 18.68L7.5623 19.82C7.2223 20.2467 6.79564 20.5733 6.2823 20.8C5.76897 21.0267 5.19231 21.14 4.5523 21.14ZM10.9091 21.09C10.3291 21.09 9.80577 20.97 9.3391 20.73C8.87243 20.49 8.50577 20.1567 8.2391 19.73C7.9791 19.3033 7.8491 18.82 7.8491 18.28C7.8491 17.7467 7.9791 17.2667 8.2391 16.84C8.50577 16.4133 8.8691 16.0833 9.3291 15.85C9.79577 15.61 10.3224 15.49 10.9091 15.49C11.4958 15.49 12.0224 15.61 12.4891 15.85C12.9558 16.0833 13.3191 16.4133 13.5791 16.84C13.8391 17.26 13.9691 17.74 13.9691 18.28C13.9691 18.82 13.8391 19.3033 13.5791 19.73C13.3191 20.1567 12.9558 20.49 12.4891 20.73C12.0224 20.97 11.4958 21.09 10.9091 21.09ZM10.9091 19.58C11.2424 19.58 11.5158 19.4667 11.7291 19.24C11.9424 19.0067 12.0491 18.6867 12.0491 18.28C12.0491 17.88 11.9424 17.5667 11.7291 17.34C11.5158 17.1133 11.2424 17 10.9091 17C10.5758 17 10.3024 17.1133 10.0891 17.34C9.87577 17.5667 9.7691 17.88 9.7691 18.28C9.7691 18.6867 9.87577 19.0067 10.0891 19.24C10.3024 19.4667 10.5758 19.58 10.9091 19.58ZM20.6093 13.58V21H18.7993V20.46C18.4459 20.88 17.9159 21.09 17.2093 21.09C16.7159 21.09 16.2659 20.9767 15.8593 20.75C15.4526 20.5167 15.1293 20.1867 14.8893 19.76C14.6559 19.3333 14.5393 18.84 14.5393 18.28C14.5393 17.72 14.6559 17.23 14.8893 16.81C15.1293 16.3833 15.4526 16.0567 15.8593 15.83C16.2659 15.6033 16.7159 15.49 17.2093 15.49C17.8559 15.49 18.3559 15.6767 18.7093 16.05V13.58H20.6093ZM17.6093 19.58C17.9359 19.58 18.2059 19.4667 18.4193 19.24C18.6326 19.0067 18.7393 18.6867 18.7393 18.28C18.7393 17.88 18.6326 17.5667 18.4193 17.34C18.2126 17.1133 17.9426 17 17.6093 17C17.2759 17 17.0026 17.1133 16.7893 17.34C16.5759 17.5667 16.4693 17.88 16.4693 18.28C16.4693 18.6867 16.5759 19.0067 16.7893 19.24C17.0026 19.4667 17.2759 19.58 17.6093 19.58ZM27.3717 18.3C27.3717 18.3133 27.3617 18.47 27.3417 18.77H23.4017C23.4817 19.05 23.635 19.2667 23.8617 19.42C24.095 19.5667 24.385 19.64 24.7317 19.64C24.9917 19.64 25.215 19.6033 25.4017 19.53C25.595 19.4567 25.7883 19.3367 25.9817 19.17L26.9817 20.21C26.455 20.7967 25.685 21.09 24.6717 21.09C24.0383 21.09 23.4817 20.97 23.0017 20.73C22.5217 20.49 22.1483 20.1567 21.8817 19.73C21.6217 19.3033 21.4917 18.82 21.4917 18.28C21.4917 17.7467 21.6183 17.27 21.8717 16.85C22.1317 16.4233 22.4883 16.09 22.9417 15.85C23.395 15.61 23.905 15.49 24.4717 15.49C25.0117 15.49 25.5017 15.6033 25.9417 15.83C26.3817 16.05 26.7283 16.3733 26.9817 16.8C27.2417 17.22 27.3717 17.72 27.3717 18.3ZM24.4817 16.84C24.1883 16.84 23.9417 16.9233 23.7417 17.09C23.5483 17.2567 23.425 17.4833 23.3717 17.77H25.5917C25.5383 17.4833 25.4117 17.2567 25.2117 17.09C25.0183 16.9233 24.775 16.84 24.4817 16.84Z" fill="#5CE271"/>
</svg>
