<svg width="75" height="42" viewBox="0 0 75 42" fill="none" xmlns="http://www.w3.org/2000/svg">
<path d="M4.764 36.848C4.684 36.656 4.576 36.412 4.44 36.116C4.312 35.82 4.172 35.5 4.02 35.156C3.868 34.812 3.704 34.46 3.528 34.1C3.36 33.732 3.2 33.388 3.048 33.068C2.896 32.74 2.752 32.448 2.616 32.192C2.488 31.936 2.384 31.74 2.304 31.604C2.216 32.548 2.144 33.572 2.088 34.676C2.032 35.772 1.984 36.88 1.944 38H0.804C0.836 37.28 0.872 36.556 0.912 35.828C0.952 35.092 0.996 34.372 1.044 33.668C1.1 32.956 1.156 32.264 1.212 31.592C1.276 30.92 1.344 30.284 1.416 29.684H2.436C2.652 30.036 2.884 30.452 3.132 30.932C3.38 31.412 3.628 31.916 3.876 32.444C4.124 32.964 4.364 33.488 4.596 34.016C4.828 34.536 5.04 35.012 5.232 35.444C5.424 35.012 5.636 34.536 5.868 34.016C6.1 33.488 6.34 32.964 6.588 32.444C6.836 31.916 7.084 31.412 7.332 30.932C7.58 30.452 7.812 30.036 8.028 29.684H9.048C9.32 32.364 9.524 35.136 9.66 38H8.52C8.48 36.88 8.432 35.772 8.376 34.676C8.32 33.572 8.248 32.548 8.16 31.604C8.08 31.74 7.972 31.936 7.836 32.192C7.708 32.448 7.568 32.74 7.416 33.068C7.264 33.388 7.1 33.732 6.924 34.1C6.756 34.46 6.596 34.812 6.444 35.156C6.292 35.5 6.148 35.82 6.012 36.116C5.884 36.412 5.78 36.656 5.7 36.848H4.764ZM30.7811 38C30.6451 37.64 30.5171 37.288 30.3971 36.944C30.2771 36.592 30.1531 36.236 30.0251 35.876H26.2571L25.5011 38H24.2891C24.6091 37.12 24.9091 36.308 25.1891 35.564C25.4691 34.812 25.7411 34.1 26.0051 33.428C26.2771 32.756 26.5451 32.116 26.8091 31.508C27.0731 30.892 27.3491 30.284 27.6371 29.684H28.7051C28.9931 30.284 29.2691 30.892 29.5331 31.508C29.7971 32.116 30.0611 32.756 30.3251 33.428C30.5971 34.1 30.8731 34.812 31.1531 35.564C31.4331 36.308 31.7331 37.12 32.0531 38H30.7811ZM29.6891 34.916C29.4331 34.22 29.1771 33.548 28.9211 32.9C28.6731 32.244 28.4131 31.616 28.1411 31.016C27.8611 31.616 27.5931 32.244 27.3371 32.9C27.0891 33.548 26.8411 34.22 26.5931 34.916H29.6891ZM53.0782 29.684C52.8302 29.956 52.5502 30.26 52.2382 30.596C51.9262 30.924 51.5982 31.264 51.2542 31.616C50.9182 31.96 50.5822 32.3 50.2462 32.636C49.9102 32.972 49.5942 33.284 49.2982 33.572C49.6422 33.812 50.0062 34.108 50.3902 34.46C50.7742 34.812 51.1502 35.188 51.5182 35.588C51.8862 35.988 52.2302 36.396 52.5502 36.812C52.8782 37.228 53.1502 37.624 53.3662 38H51.9982C51.7582 37.624 51.4822 37.248 51.1702 36.872C50.8582 36.488 50.5262 36.124 50.1742 35.78C49.8302 35.428 49.4782 35.104 49.1182 34.808C48.7662 34.512 48.4222 34.26 48.0862 34.052V38H46.9222V29.684H48.0862V33.356C48.3662 33.092 48.6742 32.796 49.0102 32.468C49.3462 32.132 49.6782 31.796 50.0062 31.46C50.3342 31.124 50.6422 30.804 50.9302 30.5C51.2262 30.188 51.4742 29.916 51.6742 29.684H53.0782ZM68.209 38V29.684H73.285V30.68H69.373V33.152H72.853V34.124H69.373V37.004H73.585V38H68.209Z" fill="#FAFF00"/>
<path d="M7.92 21.28C5.66667 21.28 3.94667 20.6533 2.76 19.4C1.58667 18.1467 1 16.3667 1 14.06C1 12.9133 1.18 11.8933 1.54 11C1.9 10.0933 2.39333 9.33333 3.02 8.72C3.64667 8.09333 4.39333 7.62 5.26 7.3C6.12667 6.98 7.06667 6.82 8.08 6.82C8.66667 6.82 9.2 6.86667 9.68 6.96C10.16 7.04 10.58 7.14 10.94 7.26C11.3 7.36667 11.6 7.48 11.84 7.6C12.08 7.72 12.2533 7.81333 12.36 7.88L11.46 10.4C11.0333 10.1733 10.5333 9.98 9.96 9.82C9.4 9.66 8.76 9.58 8.04 9.58C7.56 9.58 7.08667 9.66 6.62 9.82C6.16667 9.98 5.76 10.24 5.4 10.6C5.05333 10.9467 4.77333 11.4 4.56 11.96C4.34667 12.52 4.24 13.2 4.24 14C4.24 14.64 4.30667 15.24 4.44 15.8C4.58667 16.3467 4.81333 16.82 5.12 17.22C5.44 17.62 5.85333 17.94 6.36 18.18C6.86667 18.4067 7.48 18.52 8.2 18.52C8.65333 18.52 9.06 18.4933 9.42 18.44C9.78 18.3867 10.1 18.3267 10.38 18.26C10.66 18.18 10.9067 18.0933 11.12 18C11.3333 17.9067 11.5267 17.82 11.7 17.74L12.56 20.24C12.12 20.5067 11.5 20.7467 10.7 20.96C9.9 21.1733 8.97333 21.28 7.92 21.28ZM24.4152 21C24.2685 20.52 24.1018 20.0267 23.9152 19.52C23.7418 19.0133 23.5685 18.5067 23.3952 18H17.9952C17.8218 18.5067 17.6418 19.0133 17.4552 19.52C17.2818 20.0267 17.1218 20.52 16.9752 21H13.7352C14.2552 19.5067 14.7485 18.1267 15.2152 16.86C15.6818 15.5933 16.1352 14.4 16.5752 13.28C17.0285 12.16 17.4685 11.1 17.8952 10.1C18.3352 9.08667 18.7885 8.1 19.2552 7.14H22.2352C22.6885 8.1 23.1352 9.08667 23.5752 10.1C24.0152 11.1 24.4552 12.16 24.8952 13.28C25.3485 14.4 25.8085 15.5933 26.2752 16.86C26.7418 18.1267 27.2352 19.5067 27.7552 21H24.4152ZM20.6752 10.28C20.6085 10.48 20.5085 10.7533 20.3752 11.1C20.2418 11.4467 20.0885 11.8467 19.9152 12.3C19.7418 12.7533 19.5485 13.2533 19.3352 13.8C19.1352 14.3467 18.9285 14.92 18.7152 15.52H22.6552C22.4418 14.92 22.2352 14.3467 22.0352 13.8C21.8352 13.2533 21.6418 12.7533 21.4552 12.3C21.2818 11.8467 21.1285 11.4467 20.9952 11.1C20.8618 10.7533 20.7552 10.48 20.6752 10.28ZM37.7292 21C37.4492 20.5467 37.1159 20.06 36.7292 19.54C36.3559 19.0067 35.9426 18.48 35.4892 17.96C35.0492 17.4267 34.5892 16.92 34.1092 16.44C33.6292 15.9467 33.1492 15.5133 32.6692 15.14V21H29.5492V7.14H32.6692V12.38C33.4826 11.5267 34.2959 10.64 35.1092 9.72C35.9359 8.78667 36.7026 7.92667 37.4092 7.14H41.1092C40.1626 8.26 39.2092 9.34 38.2492 10.38C37.3026 11.42 36.3026 12.4667 35.2492 13.52C36.3559 14.44 37.4226 15.5333 38.4492 16.8C39.4892 18.0667 40.4826 19.4667 41.4292 21H37.7292ZM43.2211 21V7.14H52.5811V9.76H46.3411V12.48H51.8811V15.04H46.3411V18.38H53.0411V21H43.2211Z" fill="#FAFF00"/>
</svg>
